<svg xmlns="http://www.w3.org/2000/svg" width="98.154" height="63.234" viewBox="0 0 98.154 63.234">
  <path id="cajas-03" d="M5.26,39.092A2.305,2.305,0,0,1,7.5,37.964q20.543.034,41.083.016h1.074a50.449,50.449,0,0,1-2.145-4.7c-2.461-7.249.544-15.369,6.859-18.824a16.013,16.013,0,0,1,17.8,2.048c3.126,2.707,5.984,5.742,8.938,8.652,5.573,5.488,11.174,10.95,16.69,16.5,5.454,5.5,6.9,12.062,4.477,19.361C99.732,68.688,94.1,72.973,86.307,74.255a134.161,134.161,0,0,1-13.8,1.211c-14.388.848-28.784.113-43.176.174a2.739,2.739,0,0,1-2.44-1.353Q15.626,58.1,5.783,41.02c-.156-.271-.347-.521-.523-.78Zm4.538,2.2c.187.363.275.559.383.744q8.857,15.218,18.946,29.652a1.619,1.619,0,0,0,1.155.566c8.681.135,17.367.392,26.041.289,8.131-.095,16.262-.5,24.384-.938a33.606,33.606,0,0,0,7.881-1.326A16.024,16.024,0,0,0,99.5,50.751c-2.422-8.771-11.568-13.307-19.568-7.008-4.8,3.776-6.516,9.64-4.362,14.818,1.858,4.468,6.654,7.978,11.546,7.256a1.633,1.633,0,0,1,1.838,1.317,1.541,1.541,0,0,1-1.319,1.89,15.012,15.012,0,0,1-3.609.018,14.755,14.755,0,0,1-8.78-4.836Q64.511,53.08,53.727,41.993a2.1,2.1,0,0,0-1.658-.717q-18.628.034-37.253.016Zm79-3.758a1.353,1.353,0,0,0-.133-.257C82.579,31.27,76.613,25.14,70.361,19.312A12.122,12.122,0,0,0,57.176,16.8c-7.614,2.9-9.732,13.941-3.9,20.008,5.769,6.006,11.586,11.965,17.387,17.942.18.187.39.347.677.589C70.481,46,79.37,36.857,88.8,37.534Z" transform="translate(-5.26 -12.643)"/>
</svg>
