<svg xmlns="http://www.w3.org/2000/svg" width="78.87" height="79.346" viewBox="0 0 78.87 79.346">
  <path id="cajas_Mesa_de_trabajo_1" data-name="cajas_Mesa de trabajo 1" d="M56.564,6.32c1.863,1.035,3.72,2.088,5.595,3.108q11.229,6.092,22.463,12.177l.338.194c1.121.633,1.243,1.372.348,2.281q-2.937,2.988-5.9,5.952c-.839.841-1.71,1.651-2.6,2.5.251.27.416.458.583.635q3.819,3.862,7.643,7.716c1.241,1.255,1.156,1.875-.375,2.706-2.541,1.379-5.072,2.774-7.629,4.12a1.1,1.1,0,0,0-.666,1.14c.019,6.541,0,13.082.025,19.621a1.909,1.909,0,0,1-1.107,1.917Q61.477,77.811,47.7,85.3a2.253,2.253,0,0,1-2.434.017Q31.5,77.821,17.683,70.409a1.9,1.9,0,0,1-1.14-1.9c.023-6.539,0-13.08.025-19.621a1.152,1.152,0,0,0-.7-1.2c-2.559-1.344-5.09-2.741-7.629-4.12-1.486-.806-1.589-1.457-.363-2.656C10.662,38.2,13.452,35.5,16.35,32.7c-1.195-1.154-2.213-2.108-3.2-3.093q-2.784-2.757-5.523-5.566c-.81-.826-.752-1.638.206-2.158q7.51-4.1,15.044-8.148a1.159,1.159,0,0,1,1.727.4c.356.672.1,1.278-.763,1.748q-6.428,3.5-12.863,6.974c-.225.122-.457.249-.651.361,2.623,2.566,5.232,5.119,7.948,7.771l26.17-14.145L36.587,8.987c-2.56,1.385-5.166,2.8-7.771,4.2a4.134,4.134,0,0,1-.777.365,1.086,1.086,0,0,1-1.391-.528A1.12,1.12,0,0,1,27,11.521a4.762,4.762,0,0,1,.664-.389Q31.783,8.894,35.9,6.664a5.154,5.154,0,0,0,.488-.334h.946l8.989,9.22c.4-.389.608-.565.806-.762L55.635,6.32ZM47.732,82.54c.239-.113.377-.173.511-.243q12.594-6.809,25.208-13.611a.992.992,0,0,0,.536-1.061q-.012-8.688,0-17.375c0-.247-.021-.493-.039-.841-1.3.7-2.526,1.36-3.742,2.018-.81.427-1.473.3-1.826-.315-.389-.659-.132-1.3.709-1.768,1.084-.6,2.18-1.177,3.27-1.768L82.7,41.965,74.763,34.18,48.513,48.362l7.841,7.854c.185-.093.41-.194.629-.319q3.47-1.882,6.943-3.763a6.9,6.9,0,0,1,.826-.424,1.165,1.165,0,0,1,1.1,2.053,4.334,4.334,0,0,1-.4.233l-8.371,4.54c-1.016.548-1.348.491-2.182-.34q-3.238-3.231-6.473-6.471c-.194-.194-.389-.371-.682-.635ZM72.659,32.626c-.223-.136-.371-.237-.526-.321q-12.565-6.8-25.121-13.6a1.087,1.087,0,0,0-1.2.085q-10.073,5.455-20.155,10.9l-5.362,2.9c.225.132.373.229.528.313q12.526,6.768,25.053,13.568a1.173,1.173,0,0,0,1.276-.047Q56.51,41.345,65.879,36.3ZM45.217,82.542V51.1c-.289.274-.5.458-.69.655l-6.362,6.362c-.96.96-1.216,1-2.43.34q-7.965-4.317-15.93-8.629c-.241-.13-.49-.243-.826-.408v.938c0,5.713.014,11.429-.017,17.142a1.281,1.281,0,0,0,.777,1.311q11.8,6.341,23.571,12.723C43.921,81.864,44.533,82.18,45.217,82.542Zm-34.992-40.6,26.36,14.279,7.864-7.86L18.17,34.161ZM48.5,16.832l26.265,14.2L82.7,23.247,56.352,8.978Z" transform="translate(-7.031 -6.32)" fill="#1e51a0"/>
</svg>
