<svg xmlns="http://www.w3.org/2000/svg" width="83.672" height="73.05" viewBox="0 0 83.672 73.05">
  <path id="cajas-02" d="M5.21,4.72A2.41,2.41,0,0,1,7.4,3.959c3.694.246,7.392.417,11.089.609l14.759.761q5.3.274,10.6.54c1.306.065,2.611.1,3.915.19a2.111,2.111,0,0,1,.9.316Q68.384,18.318,88.09,30.26a1.586,1.586,0,0,1,.79,1.564q-.209,7.308-.411,14.616c-.027.98-.065,1.96-.084,2.938A1.806,1.806,0,0,1,87.5,51Q68.051,63.819,48.629,76.692a1.388,1.388,0,0,1-1.766-.021Q27.436,63.819,7.981,50.988a1.749,1.749,0,0,1-.847-1.545Q6.883,40.617,6.616,31.8a1.99,1.99,0,0,1,1.035-1.884c2.573-1.631,5.121-3.3,7.679-4.948.225-.145.44-.3.723-.5-.221-.156-.381-.282-.554-.381q-4.811-3-9.637-5.989c-.226-.139-.436-.306-.653-.461Zm6.533,2.116c.282.217.363.287.451.344Q29.031,17.952,45.879,28.7a2.485,2.485,0,0,0,1.218.343c3.892.107,7.784.169,11.676.265q11.51.282,23.028.584h.919c-.39-.255-.58-.39-.778-.508Q64.952,19.248,47.965,9.124a2.6,2.6,0,0,0-1.142-.369Q38.594,8.269,30.36,7.83q-7.091-.392-14.184-.773C14.779,6.981,13.372,6.916,11.743,6.836ZM46.506,73.32v-1c0-4.847-.015-9.694.017-14.544a1.325,1.325,0,0,0-.744-1.285q-17.861-11.065-35.7-22.154c-.219-.135-.453-.247-.733-.4,0,.936-.015,1.772,0,2.607.086,3.806.2,7.624.255,11.436a1.39,1.39,0,0,0,.717,1.3Q24.568,58.713,38.8,68.193C41.312,69.862,43.822,71.534,46.506,73.32Zm2.664-.04c.282-.171.44-.259.59-.36Q67.634,61.052,85.51,49.175a1.2,1.2,0,0,0,.571-1.142q.143-6.851.31-13.718c0-.1-.019-.19-.04-.4-.333.19-.588.325-.832.478L66.321,46.3q-8.28,5.138-16.557,10.3a1.245,1.245,0,0,0-.571.835C49.16,62.662,49.17,67.888,49.17,73.28ZM69.2,41.64l-.027-.2H56.061c-1.58,0-3.161-.013-4.741,0a1.78,1.78,0,0,1-1.861-1.129c-.691-1.507-1.492-2.961-2.249-4.438-.514-1-1.033-2.006-1.591-3.089-1.713,1.656-3.346,3.247-4.99,4.83-1.054,1.018-1.376,1.047-2.636.274-2.687-1.654-5.371-3.313-8.069-4.948a1.01,1.01,0,0,0-.851-.107c-2.624,1.688-5.222,3.414-7.886,5.171a4.545,4.545,0,0,0,.369.295Q34.531,46.326,47.52,54.33a1.081,1.081,0,0,0,.915-.059c1.762-1.03,3.5-2.093,5.239-3.163ZM7.859,7.71c0,2.731.025,5.256-.019,7.782a1.283,1.283,0,0,0,.74,1.279q14.8,8.962,29.569,17.954c.251.152.508.3.936.544l4.3-4.809ZM83.032,32.747,83,32.585l-34.859-.872c1.106,2.162,2.168,4.206,3.193,6.267a.945.945,0,0,0,1,.59c6.969-.017,13.936,0,20.906-.027a2.423,2.423,0,0,0,1.2-.365c2.664-1.642,5.3-3.319,7.942-4.986.223-.141.428-.3.651-.445ZM10.582,31.312c.261.19.447.331.649.459,2.272,1.439,4.556,2.855,6.817,4.32a.873.873,0,0,0,1.142-.023c2.307-1.587,4.636-3.14,6.956-4.71.164-.11.306-.255.5-.415-2.529-1.631-4.992-3.235-7.472-4.8a.813.813,0,0,0-.712-.013C15.848,27.83,13.251,29.552,10.582,31.312Z" transform="translate(-5.21 -3.949)"/>
</svg>
