<svg xmlns="http://www.w3.org/2000/svg" width="76" height="76" viewBox="0 0 76 76">
  <g id="Grupo_3151" data-name="Grupo 3151" transform="translate(-570 -532)">
    <circle id="Elipse_275" data-name="Elipse 275" cx="38" cy="38" r="38" transform="translate(570 532)" fill="#1e51a0"/>
    <g id="cliente" transform="translate(585.611 543)">
      <path id="Trazado_7419" data-name="Trazado 7419" d="M168.047,14.1A7.051,7.051,0,1,0,161,7.051,7.059,7.059,0,0,0,168.047,14.1Zm0-12.672a5.622,5.622,0,1,1-5.621,5.622A5.628,5.628,0,0,1,168.047,1.429Z" transform="translate(-145.657)" fill="#fff"/>
      <path id="Trazado_7420" data-name="Trazado 7420" d="M119.159,164.438A10.783,10.783,0,0,1,129.9,174.493H113.391a.715.715,0,1,0,0,1.429h17.252a.715.715,0,0,0,.715-.715,12.2,12.2,0,0,0-24.4,0,.715.715,0,0,0,.715.715h2.858a.715.715,0,1,0,0-1.429h-2.12A10.784,10.784,0,0,1,119.159,164.438Z" transform="translate(-96.769 -147.479)" fill="#fff"/>
      <path id="Trazado_7421" data-name="Trazado 7421" d="M13.376,334.345l-3.92-.658-1.837-3.525a.715.715,0,0,0-1.267,0l-1.837,3.525-3.92.658A.714.714,0,0,0,.2,335.55l2.785,2.836L2.4,342.318a.715.715,0,0,0,1.025.745l3.558-1.772,3.558,1.772a.715.715,0,0,0,1.025-.745l-.586-3.931,2.785-2.836a.714.714,0,0,0-.391-1.205Zm-3.662,3.294a.714.714,0,0,0-.2.606l.436,2.927L7.3,339.853a.714.714,0,0,0-.637,0l-2.649,1.319.436-2.927a.714.714,0,0,0-.2-.606l-2.073-2.112,2.919-.49a.715.715,0,0,0,.515-.375l1.368-2.624,1.368,2.624a.715.715,0,0,0,.515.375l2.919.49-2.073,2.112Z" transform="translate(0.001 -298.359)" fill="#fff"/>
      <path id="Trazado_7422" data-name="Trazado 7422" d="M175.043,334.345l-3.92-.658-1.837-3.525a.715.715,0,0,0-1.267,0l-1.837,3.525-3.92.658a.714.714,0,0,0-.392,1.205l2.785,2.836-.586,3.931a.715.715,0,0,0,1.025.745l3.558-1.772,3.558,1.772a.715.715,0,0,0,1.025-.745l-.586-3.931,2.785-2.836a.714.714,0,0,0-.392-1.205Zm-3.662,3.294a.715.715,0,0,0-.2.606l.436,2.927-2.649-1.319a.715.715,0,0,0-.637,0l-2.649,1.319.436-2.927a.714.714,0,0,0-.2-.606l-2.073-2.112,2.919-.49a.715.715,0,0,0,.515-.375l1.368-2.624,1.368,2.624a.715.715,0,0,0,.515.375l2.919.49Z" transform="translate(-146.263 -298.359)" fill="#fff"/>
      <path id="Trazado_7423" data-name="Trazado 7423" d="M337.27,334.829a.714.714,0,0,0-.561-.484l-3.92-.658-1.837-3.525a.715.715,0,0,0-1.267,0l-1.837,3.525-3.92.658a.714.714,0,0,0-.392,1.205l2.785,2.836-.586,3.931a.715.715,0,0,0,1.025.745l3.558-1.772,3.558,1.772a.715.715,0,0,0,1.025-.745l-.586-3.931,2.785-2.836a.714.714,0,0,0,.17-.721Zm-4.223,2.81a.715.715,0,0,0-.2.606l.436,2.927-2.649-1.319a.715.715,0,0,0-.637,0l-2.649,1.319.436-2.927a.714.714,0,0,0-.2-.606l-2.073-2.112,2.919-.49a.715.715,0,0,0,.515-.375l1.368-2.624,1.368,2.624a.715.715,0,0,0,.515.375l2.919.49Z" transform="translate(-292.527 -298.359)" fill="#fff"/>
      <path id="Trazado_7424" data-name="Trazado 7424" d="M210.12,86.167a3.24,3.24,0,0,0,2.445-1.117.715.715,0,0,0-1.079-.938,1.805,1.805,0,0,1-2.732,0,.715.715,0,0,0-1.078.938A3.24,3.24,0,0,0,210.12,86.167Z" transform="translate(-187.73 -75.876)" fill="#fff"/>
    </g>
  </g>
</svg>
