<svg xmlns="http://www.w3.org/2000/svg" width="76" height="76" viewBox="0 0 76 76">
  <g id="Grupo_3150" data-name="Grupo 3150" transform="translate(-424 -532)">
    <circle id="Elipse_268" data-name="Elipse 268" cx="38" cy="38" r="38" transform="translate(424 532)" fill="#1e51a0"/>
    <g id="handshake_1_" data-name="handshake (1)" transform="translate(435.65 542)">
      <path id="Trazado_7641" data-name="Trazado 7641" d="M52.486,111.487l-8.821-11.459a1.033,1.033,0,0,0-1.374-.241l-5.7,3.622H29.169a1.025,1.025,0,0,0-.284.047l-5.759,1.658-5.976-1.634-5.806-3.693a1.033,1.033,0,0,0-1.359.223L.228,112.094a1.033,1.033,0,0,0,.13,1.432l5.114,4.4,4.588,6.182a3.649,3.649,0,0,0,2.3,6.129,3.676,3.676,0,0,0-.043.559,3.652,3.652,0,0,0,3.652,3.652H16c0,.025,0,.049,0,.074a3.652,3.652,0,0,0,3.652,3.652,3.729,3.729,0,0,0,.57-.045,3.652,3.652,0,0,0,6.215,2.224L27,139.8l.234.189a3.65,3.65,0,0,0,6.189-2.682,3.646,3.646,0,0,0,3.707-3.705,3.649,3.649,0,0,0,3.707-3.709,3.65,3.65,0,0,0,3.12-5.639l3.35-7.016,5.036-4.334a1.033,1.033,0,0,0,.145-1.414Zm-41.473-9.461,4.175,2.655L6.106,115.746l-3.64-3.133Zm.589,23.461,1.26-1.26c.038-.038.078-.074.119-.108a1.582,1.582,0,0,1,.861-.349h.027c.045,0,.09-.006.136-.006a1.576,1.576,0,0,1,1.131.5,1.625,1.625,0,0,1-.07,2.248l-1.222,1.222a1.585,1.585,0,1,1-2.242-2.242Zm3.242,6.432a1.585,1.585,0,0,1,0-2.242l2.443-2.443a1.6,1.6,0,0,1,1.8-.311,1.58,1.58,0,0,1,.873,1.637,1.673,1.673,0,0,1-.472.955l-2.4,2.4a1.585,1.585,0,0,1-2.242,0Zm3.69,3.725a1.585,1.585,0,0,1,0-2.242l2.443-2.443a1.6,1.6,0,0,1,1.916-.251,1.577,1.577,0,0,1,.757,1.6,1.675,1.675,0,0,1-.47.93l-2.4,2.4a1.585,1.585,0,0,1-2.242,0Zm4.2,3.249a1.587,1.587,0,0,1,0-2.242l1.26-1.26c.038-.038.078-.074.119-.108l0,0a1.58,1.58,0,0,1,.7-.326l.018,0c.044-.008.089-.014.134-.018l.055,0c.037,0,.074,0,.111,0a1.575,1.575,0,0,1,1.131.5,1.431,1.431,0,0,1,.1.12,1.636,1.636,0,0,1-.179,2.134l-1.215,1.215a1.587,1.587,0,0,1-2.242,0ZM42.014,127.36a1.587,1.587,0,0,1-2.242,0,.935.935,0,0,0-.07-.063l-6.645-6.715a1.033,1.033,0,0,0-1.469,1.454l6.717,6.787,0,0a1.585,1.585,0,1,1-2.242,2.242l-4.493-4.54a1.033,1.033,0,1,0-1.469,1.454l4.425,4.47a.98.98,0,0,0,.072.081,1.585,1.585,0,1,1-2.242,2.242L29.905,132.3a1.033,1.033,0,1,0-1.469,1.454l2.384,2.408a.922.922,0,0,0,.073.081,1.585,1.585,0,1,1-2.242,2.242,2.288,2.288,0,0,0-.234-.187c-.068-.051-.085-.087-.051-.169s.085-.158.119-.242.068-.189.1-.286a3.726,3.726,0,0,0,.134-1.59,3.615,3.615,0,0,0-3.081-3.111,3.686,3.686,0,0,0-.885-3.326,3.625,3.625,0,0,0-2.6-1.142h-.109a3.617,3.617,0,0,0-3.58-3.725,3.716,3.716,0,0,0-.882.094,3.617,3.617,0,0,0-3.544-3.1,3.66,3.66,0,0,0-2.495.938l-3.995-5.383L17.1,105.609l3.046.833-3.978,7.019a3.653,3.653,0,0,0,1.377,4.978q.08.045.161.086l.012.006a3.678,3.678,0,0,0,.438.184,3.652,3.652,0,0,0,4.366-1.653l2.585-4.562,4.615.327,12.29,12.29a1.588,1.588,0,0,1,0,2.242Zm.428-4.737-11.53-11.529a.915.915,0,0,0-.068-.063,1.034,1.034,0,0,0-.589-.237l-5.651-.4a1.05,1.05,0,0,0-.972.521l-2.906,5.129a1.585,1.585,0,1,1-2.758-1.563l3.88-6.847,1.572-.452.031-.01,5.868-1.694h7.09l8.851,11.251Zm4.169-7.518-8.185-10.41,4.177-2.657,7.648,9.934Zm0,0" transform="translate(0.001 -89.422)" fill="#fff"/>
      <path id="Trazado_7642" data-name="Trazado 7642" d="M301.178,38a1.03,1.03,0,0,0,.731-.3l7.059-7.059a1.033,1.033,0,0,0-1.462-1.462l-7.059,7.059A1.034,1.034,0,0,0,301.178,38Zm0,0" transform="translate(-269.25 -25.951)" fill="#fff"/>
      <path id="Trazado_7643" data-name="Trazado 7643" d="M130.557,37.695a1.033,1.033,0,0,0,1.462-1.462l-7.059-7.059a1.033,1.033,0,0,0-1.462,1.462Zm0,0" transform="translate(-110.515 -25.951)" fill="#fff"/>
      <path id="Trazado_7644" data-name="Trazado 7644" d="M246.994,48.607a1.034,1.034,0,0,0,1.033-1.033V41.732a1.033,1.033,0,0,0-2.067,0v5.842A1.034,1.034,0,0,0,246.994,48.607Zm0,0" transform="translate(-220.643 -36.561)" fill="#fff"/>
      <path id="Trazado_7645" data-name="Trazado 7645" d="M246.063,1.926A1.033,1.033,0,1,0,247.646.711a1.033,1.033,0,0,0-1.583,1.215Zm0,0" transform="translate(-220.666 -0.5)" fill="#fff"/>
    </g>
  </g>
</svg>
