<svg xmlns="http://www.w3.org/2000/svg" width="74" height="74" viewBox="0 0 74 74">
  <g id="Grupo_3153" data-name="Grupo 3153" transform="translate(-860 -534)">
    <circle id="Elipse_269" data-name="Elipse 269" cx="37" cy="37" r="37" transform="translate(860 534)" fill="#1e51a0"/>
    <g id="guarantee" transform="translate(876.306 552.712)">
      <path id="Trazado_7619" data-name="Trazado 7619" d="M37.941,0H8.968A3.453,3.453,0,0,0,5.519,3.449v26.9H.69a.69.69,0,0,0-.69.69v1.38a3.453,3.453,0,0,0,3.449,3.449h21.4v3.449a.69.69,0,0,0,1.1.552L28.3,38.113l2.345,1.759a.685.685,0,0,0,.414.138.679.679,0,0,0,.69-.69V35.871h.673a3.453,3.453,0,0,0,3.449-3.449V5.519H40.7a.69.69,0,0,0,.69-.69V3.449A3.453,3.453,0,0,0,37.941,0ZM24.85,34.492H3.449a2.07,2.07,0,0,1-2.07-2.069v-.69H24.85Zm5.519,3.449L28.714,36.7a.689.689,0,0,0-.828,0L26.23,37.941v-7.7a2.037,2.037,0,0,0,.4-.008,2.1,2.1,0,0,0,3.322,0,2.049,2.049,0,0,0,.414.008Zm.887-11.051a.69.69,0,0,0-.392.947.717.717,0,0,1-.952.958.69.69,0,0,0-.947.392.714.714,0,0,1-1.348,0,.689.689,0,0,0-.947-.392.717.717,0,0,1-.952-.958.69.69,0,0,0-.391-.947.717.717,0,0,1,0-1.352.69.69,0,0,0,.391-.946.717.717,0,0,1,.952-.958.689.689,0,0,0,.947-.392.714.714,0,0,1,1.348,0,.69.69,0,0,0,.947.392.717.717,0,0,1,.952.958.69.69,0,0,0,.392.946.718.718,0,0,1,0,1.352ZM35.128,1.466c-.039.055-.074.114-.109.172a3.452,3.452,0,0,0-.2.365c-.031.069-.06.133-.087.2a3.5,3.5,0,0,0-.128.414c-.016.064-.036.126-.048.192a3.438,3.438,0,0,0-.065.64V32.422a2.035,2.035,0,0,1-2.743,1.943v-4.8a2.069,2.069,0,0,0,.552-1.69,2.107,2.107,0,0,0,0-3.325A2.1,2.1,0,0,0,29.955,22.2a2.1,2.1,0,0,0-3.322,0,2.1,2.1,0,0,0-2.345,2.352,2.107,2.107,0,0,0,0,3.325,2.074,2.074,0,0,0,.567,1.71v.766H6.9V3.449A2.07,2.07,0,0,1,8.968,1.38H35.182c-.019.027-.034.058-.053.086ZM40.01,4.139H35.871v-.69a2.07,2.07,0,0,1,4.139,0Zm0,0" fill="#fff"/>
      <path id="Trazado_7620" data-name="Trazado 7620" d="M264,64h2.759v1.38H264Zm0,0" transform="translate(-241.235 -58.481)" fill="#fff"/>
      <path id="Trazado_7621" data-name="Trazado 7621" d="M184,64h5.519v1.38H184Zm0,0" transform="translate(-168.134 -58.481)" fill="#fff"/>
      <path id="Trazado_7622" data-name="Trazado 7622" d="M160,104h13.8v1.38H160Zm0,0" transform="translate(-146.203 -95.032)" fill="#fff"/>
      <path id="Trazado_7623" data-name="Trazado 7623" d="M120,152h3.449v1.38H120Zm0,0" transform="translate(-109.652 -138.893)" fill="#fff"/>
      <path id="Trazado_7624" data-name="Trazado 7624" d="M120,192h7.588v1.38H120Zm0,0" transform="translate(-109.652 -175.444)" fill="#fff"/>
      <path id="Trazado_7625" data-name="Trazado 7625" d="M176,152h15.866v1.38H176Zm0,0" transform="translate(-160.824 -138.893)" fill="#fff"/>
      <path id="Trazado_7626" data-name="Trazado 7626" d="M224,192h11.727v1.38H224Zm0,0" transform="translate(-204.685 -175.444)" fill="#fff"/>
      <path id="Trazado_7627" data-name="Trazado 7627" d="M120,232h13.8v1.38H120Zm0,0" transform="translate(-109.652 -211.995)" fill="#fff"/>
      <path id="Trazado_7628" data-name="Trazado 7628" d="M120,272h11.727v1.38H120Zm0,0" transform="translate(-109.652 -248.546)" fill="#fff"/>
    </g>
  </g>
</svg>
