<svg xmlns="http://www.w3.org/2000/svg" width="74" height="74" viewBox="0 0 74 74">
  <g id="Grupo_3152" data-name="Grupo 3152" transform="translate(-716 -534)">
    <circle id="Elipse_270" data-name="Elipse 270" cx="37" cy="37" r="37" transform="translate(716 534)" fill="#1e51a0"/>
    <g id="bosquejo" transform="translate(731.52 547.947)">
      <g id="Grupo_495" data-name="Grupo 495" transform="translate(30.251 31.021)">
        <g id="Grupo_494" data-name="Grupo 494">
          <path id="Trazado_7317" data-name="Trazado 7317" d="M368.28,360.8a.63.63,0,0,0-.687.137l-6.891,6.891a.631.631,0,0,0,.446,1.076h6.891a.631.631,0,0,0,.631-.631V361.38A.631.631,0,0,0,368.28,360.8Zm-5.61,6.843,4.738-4.738v4.738Z" transform="translate(-360.517 -360.749)" fill="#fff"/>
        </g>
      </g>
      <g id="Grupo_497" data-name="Grupo 497" transform="translate(0 0.82)">
        <g id="Grupo_496" data-name="Grupo 496" transform="translate(0 0)">
          <path id="Trazado_7318" data-name="Trazado 7318" d="M42.572,20.962a.631.631,0,0,0-.687.137L40,22.987V10.147a.631.631,0,0,0-.631-.631H34.521l1.759-1.759h0l1.695-1.695a1.923,1.923,0,0,0,0-2.719l-1.96-1.96a1.923,1.923,0,0,0-2.719,0l-1.7,1.7L29.552,5.127,25.163,9.516H5.59V3.278a.631.631,0,0,0-.631-.631A4.965,4.965,0,0,0,0,7.607V34.389a.632.632,0,0,0,.015.136,4.776,4.776,0,0,0,4.762,4.413H24.045l-3.629,3.629a.631.631,0,0,0,.446,1.076H42.331a.631.631,0,0,0,.631-.631V21.545A.631.631,0,0,0,42.572,20.962ZM34.188,2.275a.662.662,0,0,1,.936,0l1.96,1.96a.662.662,0,0,1,0,.936L35.834,6.42l-2.9-2.9ZM32.047,4.416l2.9,2.9L33.785,8.468l-2.9-2.9ZM41.7,28.63H40.537a.631.631,0,0,0,0,1.261H41.7v1.9H40.537a.631.631,0,0,0,0,1.261H41.7v1.9H40.537a.631.631,0,0,0,0,1.261H41.7v1.9H40.537a.631.631,0,0,0,0,1.261H41.7v3.007H22.385l6.369-6.369a.631.631,0,0,0-.892-.892l-2.556,2.556H4.777a3.5,3.5,0,0,1-3.513-3.4q.005-.18.028-.356v0q.011-.084.025-.167l0-.019q.013-.074.03-.147l.009-.041q.014-.062.031-.123l.019-.066c.009-.032.019-.064.029-.1s.021-.063.032-.094.015-.044.023-.066c.015-.041.032-.082.048-.123l.014-.035c.022-.05.044-.1.068-.149l0-.006a3.712,3.712,0,0,1,2.58-2.018l.01,0c.052-.011.1-.02.158-.028l.027,0c.048-.007.1-.013.145-.018l.041,0c.047,0,.094-.008.141-.011l.045,0q.093,0,.187,0a.631.631,0,0,0,.631-.631V25.488a.631.631,0,1,0-1.261,0v3.981A4.925,4.925,0,0,0,1.5,30.84c-.082.08-.16.163-.235.248V7.607A3.7,3.7,0,0,1,4.329,3.962v19h0a.631.631,0,1,0,1.261,0h0V10.777H23.9l-3.486,3.486a.631.631,0,0,0,.892.892l4.562-4.562h0L30,6.465l2.9,2.9-.34.34h0L19.838,22.415l-2.9-2.9,2.506-2.506a.631.631,0,1,0-.892-.892l-2.952,2.952a.633.633,0,0,0-.044.05l-.013.018-.026.036-.013.022c-.007.012-.014.024-.02.036l-.011.024c-.006.012-.011.025-.016.038l-.005.013-1.229,3.48-.838,2.373a.638.638,0,0,0-.025.1h-2.1a.631.631,0,0,0,0,1.261H28.731a.631.631,0,1,0,0-1.261H16.2L20.048,23.9l.009,0,.044-.018.017-.008.045-.025.014-.008c.015-.01.03-.02.044-.032l.011-.008a.633.633,0,0,0,.051-.046L33.26,10.777h5.475V24.248l-9.02,9.02a.631.631,0,0,0,0,.892.644.644,0,0,0,.048.043.63.63,0,0,0,.844-.043h0L41.7,23.067ZM18.685,23.045l-1.806.638-1.2-1.2.638-1.806Z" transform="translate(0 -0.82)" fill="#fff"/>
        </g>
      </g>
    </g>
  </g>
</svg>
