<svg xmlns="http://www.w3.org/2000/svg" width="220.43" height="63.913" viewBox="0 0 220.43 63.913">
  <g id="logo_fabencor_Mesa_de_trabajo_1" data-name="logo fabencor_Mesa de trabajo 1" transform="translate(-7.86 -9.837)">
    <text id="abencor" transform="translate(74.3 67.75)" fill="#fff" font-size="29.11" font-family="Franklin Gothic" font-weight="800" font-style="italic"><tspan x="0" y="0">abencor</tspan></text>
    <text id="SRL" transform="translate(196.29 68.33)" fill="#fff" font-size="17.3" font-family="Franklin Gothic" font-weight="800" font-style="italic"><tspan x="0" y="0">SRL</tspan></text>
    <path id="Trazado_8731" data-name="Trazado 8731" d="M35,17A27.16,27.16,0,1,0,62.18,44.12,27.16,27.16,0,0,0,35,17Zm0,51A23.92,23.92,0,1,1,58.94,44.12,23.92,23.92,0,0,1,35,68Z" fill="#fff"/>
    <path id="Trazado_8732" data-name="Trazado 8732" d="M35,23.13a21,21,0,1,0,21,21,21,21,0,0,0-21-21Zm0,39a18,18,0,1,1,18-18,18,18,0,0,1-18,18Z" fill="#fff"/>
    <path id="Trazado_8733" data-name="Trazado 8733" d="M35,29.11a15,15,0,1,0,15,15,15,15,0,0,0-15-15Zm0,27.07a12.06,12.06,0,1,1,8.547-3.522A12.06,12.06,0,0,1,35,56.18Z" fill="#fff"/>
    <path id="Trazado_8734" data-name="Trazado 8734" d="M35,35.54a8.59,8.59,0,1,0,8.58,8.58A8.59,8.59,0,0,0,35,35.54Zm0,14a2.255,2.255,0,1,1,0,.02Z" fill="#fff"/>
    <path id="Trazado_8735" data-name="Trazado 8735" d="M35,41.78a2.35,2.35,0,1,0,2.34,2.34A2.35,2.35,0,0,0,35,41.78Z" fill="#fff"/>
    <path id="Trazado_8736" data-name="Trazado 8736" d="M75,17.34,62.18,50.24S54.9,73,34.32,71.28c0,0,28.38,8.42,38.43-20.23L84.38,17.34Z" fill="none" stroke="#fff" stroke-width="0.5"/>
    <path id="Trazado_8737" data-name="Trazado 8737" d="M107.28,17.34l-4.6,8.86H81.34l2.97-8.86Z" fill="none" stroke="#fff" stroke-width="0.5"/>
    <path id="Trazado_8738" data-name="Trazado 8738" d="M101.38,30.43l-21.24-.27-3.08,8.92H97.27Z" fill="none" stroke="#fff" stroke-width="0.5"/>
    <path id="Trazado_8739" data-name="Trazado 8739" d="M20,18.89s18-9.06,31.4-.7S64.79,44.65,64.79,44.65s4.3-9.24,4.13-12.92S65,16.14,51.35,11.37,25.85,14.05,20,18.89Z" fill="#fff"/>
    <line id="Línea_235" data-name="Línea 235" x2="22.27" transform="translate(83.06 21.77)" fill="none" stroke="#fff" stroke-width="0.5"/>
    <path id="Trazado_8740" data-name="Trazado 8740" d="M84.31,17.74l2.36,3.83,3.13-3.83,2.02,3.83,2.49-3.83,1.54,3.83,2.99-3.83,1.46,3.83,3.06-3.83,1.5,4.03" fill="none" stroke="#fff" stroke-width="0.25"/>
    <path id="Trazado_8741" data-name="Trazado 8741" d="M103.11,25.8l-2.39-3.83L97.54,25.8l-2.05-3.83L92.96,25.8,91.4,21.97,88.36,25.8l-1.48-3.83L83.77,25.8l-1.2-3.57" fill="none" stroke="#fff" stroke-width="0.25"/>
    <line id="Línea_236" data-name="Línea 236" x2="20.9" transform="translate(78.7 34.81)" fill="none" stroke="#fff" stroke-width="0.5"/>
    <path id="Trazado_8742" data-name="Trazado 8742" d="M79.87,30.78l2.22,3.83,2.94-3.83,1.89,3.83,2.34-3.83,1.45,3.83,2.8-3.83,1.37,3.83,2.87-3.83,1.41,4.03" fill="none" stroke="#fff" stroke-width="0.25"/>
    <path id="Trazado_8743" data-name="Trazado 8743" d="M97.53,38.84l-2.25-3.83-2.99,3.83-1.92-3.83-2.38,3.83-1.47-3.83-2.85,3.83-1.39-3.83-2.92,3.83-1.12-3.58" fill="none" stroke="#fff" stroke-width="0.25"/>
    <path id="Trazado_8744" data-name="Trazado 8744" d="M74.83,17.34l3.2,2.83-4.19.55,3.03,2.94-4.43.63,3.03,2.95-4.53.94,3.03,3.34-4.42.23,3,3.79H67.89l3.4,3.67-5.06.43,3.75,3.19-5.21,1.02,3.64,3.45-5.15.62,3.75,3.33-5.29.26,3.18,4.31-5.25.05,2.24,4.25h-4.7v4.72l-4.47.06-.78,3.43-3.46-.29L47.29,70.3l-2.85-.29-2.06,1.48" fill="none" stroke="#fff" stroke-width="0.25"/>
    <path id="Trazado_8745" data-name="Trazado 8745" d="M83.92,17.74l-5.43,2.47,4.08,2.92-5.32.54,3.52,3.57-4.85.14,3.59,3.81-5.07.35L78.24,35,73,35.52l3.6,3.72-5,.17,3.72,3.39H70.41L74,46.7l-5.2.7,3.59,3.68-5,.39,3.38,4.11-5.51.35,2.22,5.35-5.51-1.16.44,6.32-4.92-1.32-.71,4.7-4.76-1.5-1.27,3.42-3.2-1.41-1.43,2-3.17-1-2.25.91-3.25-.39c22-.42,29.49-19.22,29.49-19.22L79.51,17.34" fill="none" stroke="#fff" stroke-width="0.25"/>
  </g>
</svg>
